<svg xmlns="http://www.w3.org/2000/svg" width="48" height="48" viewBox="0 0 48 48" fill="none">
  <path d="M14.9352 2.56401C14.6944 1.77136 13.8566 1.32399 13.064 1.5648C12.2713 1.80561 11.824 2.64339 12.0648 3.43605L13.2967 7.49107C10.6408 10.196 9.00001 13.9072 9 18H39C39 13.9072 37.3592 10.196 34.7033 7.49107L35.9352 3.43605C36.176 2.64339 35.7287 1.80561 34.936 1.5648C34.1434 1.32399 33.3056 1.77136 33.0648 2.56401L32.193 5.43343C29.8378 3.89509 27.0223 3.00003 24 3.00003C20.9777 3.00003 18.1622 3.89509 15.807 5.43343L14.9352 2.56401Z" fill="#2A8E9E"/>
  <path d="M39 18V21H25.5V47.926C33.08 47.1734 39 40.7781 39 33H40.5C41.3284 33 42 33.6716 42 34.5V36C42 36.8285 42.6716 37.5 43.5 37.5C44.3284 37.5 45 36.8285 45 36V34.5C45 32.0147 42.9853 30 40.5 30H39V27H43.5C44.3284 27 45 26.3285 45 25.5C45 24.6716 44.3284 24 43.5 24H39V21L40.5 21C42.9853 21 45 18.9853 45 16.5V15C45 14.1716 44.3284 13.5 43.5 13.5C42.6716 13.5 42 14.1716 42 15V16.5C42 17.3285 41.3284 18 40.5 18L39 18Z" fill="#2A8E9E"/>
  <path d="M22.5 47.926V21H9V18L7.5 18C6.67157 18 6 17.3285 6 16.5V15C6 14.1716 5.32843 13.5 4.5 13.5C3.67157 13.5 3 14.1716 3 15V16.5C3 18.9853 5.01472 21 7.5 21L9 21V24H4.5C3.67157 24 3 24.6716 3 25.5C3 26.3285 3.67157 27 4.5 27H9V30H7.5C5.01472 30 3 32.0147 3 34.5V36C3 36.8285 3.67157 37.5 4.5 37.5C5.32843 37.5 6 36.8285 6 36V34.5C6 33.6716 6.67157 33 7.5 33H9C9 40.7781 14.92 47.1734 22.5 47.926Z" fill="#2A8E9E"/>
</svg>