<svg xmlns="http://www.w3.org/2000/svg" width="32" height="32" viewBox="0 0 32 32" fill="none">
  <g clip-path="url(#clip0_7485_264)">
    <path d="M20.8813 20.5699C20.5039 19.1809 20.2877 17.5685 20.2877 15.8424C20.2877 14.1164 20.5039 12.5039 20.8813 11.115V10.9464H20.7274C19.3385 11.3239 17.7187 11.5437 15.989 11.5437C14.2593 11.5437 12.6431 11.3275 11.2506 10.9464H11.0966V11.115C11.4741 12.5039 11.6903 14.1164 11.6903 15.8424C11.6903 17.5685 11.4741 19.1809 11.0966 20.5699V20.7311H11.2726C12.6578 20.3573 14.2666 20.1411 15.989 20.1411C17.7114 20.1411 19.3202 20.3573 20.7054 20.7311H20.8813V20.5699Z" fill="#2A8E9E"/>
    <mask id="mask0_7485_264" style="mask-type:luminance" maskUnits="userSpaceOnUse" x="11" y="10" width="10" height="11">
      <path d="M20.8813 20.5699C20.5039 19.1809 20.2877 17.5685 20.2877 15.8424C20.2877 14.1164 20.5039 12.5039 20.8813 11.115V10.9464H20.7274C19.3385 11.3239 17.7187 11.5437 15.989 11.5437C14.2593 11.5437 12.6431 11.3275 11.2506 10.9464H11.0966V11.115C11.4741 12.5039 11.6903 14.1164 11.6903 15.8424C11.6903 17.5685 11.4741 19.1809 11.0966 20.5699V20.7311H11.2726C12.6578 20.3573 14.2666 20.1411 15.989 20.1411C17.7114 20.1411 19.3202 20.3573 20.7054 20.7311H20.8813V20.5699Z" fill="white"/>
    </mask>
    <g mask="url(#mask0_7485_264)">
      <path d="M11.2506 10.9505H11.0966V20.7352H11.2506V10.9505Z" fill="#2A8E9E"/>
      <path d="M11.4081 10.9501H11.2542V20.7348H11.4081V10.9501Z" fill="#2A8E9E"/>
      <path d="M11.5621 10.9501H11.4081V20.7348H11.5621V10.9501Z" fill="#2A8E9E"/>
      <path d="M11.716 10.9501H11.5621V20.7348H11.716V10.9501Z" fill="#2A8E9E"/>
      <path d="M11.8736 10.9501H11.7197V20.7348H11.8736V10.9501Z" fill="#2A8E9E"/>
      <path d="M12.0275 10.9501H11.8736V20.7348H12.0275V10.9501Z" fill="#2A8E9E"/>
      <path d="M12.1851 10.9501H12.0311V20.7348H12.1851V10.9501Z" fill="#2A8E9E"/>
      <path d="M12.339 10.9501H12.1851V20.7348H12.339V10.9501Z" fill="#2A8E9E"/>
      <path d="M12.4929 10.9501H12.339V20.7348H12.4929V10.9501Z" fill="#2A8E9E"/>
      <path d="M12.6505 10.9501H12.4966V20.7348H12.6505V10.9501Z" fill="#2A8E9E"/>
      <path d="M12.8044 10.9501H12.6505V20.7348H12.8044V10.9501Z" fill="#2A8E9E"/>
      <path d="M12.9583 10.9501H12.8044V20.7348H12.9583V10.9501Z" fill="#2A8E9E"/>
      <path d="M13.1159 10.9501H12.962V20.7348H13.1159V10.9501Z" fill="#2A8E9E"/>
      <path d="M13.2698 10.9501H13.1159V20.7348H13.2698V10.9501Z" fill="#2A8E9E"/>
      <path d="M13.4274 10.9501H13.2735V20.7348H13.4274V10.9501Z" fill="#2A8E9E"/>
      <path d="M13.5813 10.9501H13.4274V20.7348H13.5813V10.9501Z" fill="#2A8E9E"/>
      <path d="M13.7352 10.9501H13.5813V20.7348H13.7352V10.9501Z" fill="#2A8E9E"/>
      <path d="M13.8928 10.9501H13.7389V20.7348H13.8928V10.9501Z" fill="#2A8E9E"/>
      <path d="M14.0467 10.9501H13.8928V20.7348H14.0467V10.9501Z" fill="#2A8E9E"/>
      <path d="M14.2006 10.9501H14.0467V20.7348H14.2006V10.9501Z" fill="#2A8E9E"/>
      <path d="M14.3582 10.9501H14.2043V20.7348H14.3582V10.9501Z" fill="#2A8E9E"/>
      <path d="M14.5121 10.9501H14.3582V20.7348H14.5121V10.9501Z" fill="#2A8E9E"/>
      <path d="M14.6697 10.9501H14.5158V20.7348H14.6697V10.9501Z" fill="#2A8E9E"/>
      <path d="M14.8236 10.9501H14.6697V20.7348H14.8236V10.9501Z" fill="#2A8E9E"/>
      <path d="M14.9775 10.9501H14.8236V20.7348H14.9775V10.9501Z" fill="#2A8E9E"/>
      <path d="M15.1351 10.9501H14.9812V20.7348H15.1351V10.9501Z" fill="#2A8E9E"/>
      <path d="M15.289 10.9501H15.1351V20.7348H15.289V10.9501Z" fill="#2A8E9E"/>
      <path d="M15.443 10.9501H15.289V20.7348H15.443V10.9501Z" fill="#2A8E9E"/>
      <path d="M15.6005 10.9501H15.4466V20.7348H15.6005V10.9501Z" fill="#2A8E9E"/>
      <path d="M15.7545 10.9501H15.6005V20.7348H15.7545V10.9501Z" fill="#2A8E9E"/>
      <path d="M15.912 10.9501H15.7581V20.7348H15.912V10.9501Z" fill="#2A8E9E"/>
      <path d="M16.066 10.9501H15.912V20.7348H16.066V10.9501Z" fill="#2A8E9E"/>
      <path d="M16.2199 10.9501H16.066V20.7348H16.2199V10.9501Z" fill="#2A8E9E"/>
      <path d="M16.3775 10.9501H16.2235V20.7348H16.3775V10.9501Z" fill="#2A8E9E"/>
      <path d="M16.5314 10.9501H16.3775V20.7348H16.5314V10.9501Z" fill="#2A8E9E"/>
      <path d="M16.6853 10.9501H16.5314V20.7348H16.6853V10.9501Z" fill="#2A8E9E"/>
      <path d="M16.8429 10.9501H16.6889V20.7348H16.8429V10.9501Z" fill="#2A8E9E"/>
      <path d="M16.9968 10.9501H16.8429V20.7348H16.9968V10.9501Z" fill="#2A8E9E"/>
      <path d="M17.1544 10.9501H17.0005V20.7348H17.1544V10.9501Z" fill="#2A8E9E"/>
      <path d="M17.3083 10.9501H17.1544V20.7348H17.3083V10.9501Z" fill="#2A8E9E"/>
      <path d="M17.4622 10.9501H17.3083V20.7348H17.4622V10.9501Z" fill="#2A8E9E"/>
      <path d="M17.6198 10.9501H17.4659V20.7348H17.6198V10.9501Z" fill="#2A8E9E"/>
      <path d="M17.7737 10.9501H17.6198V20.7348H17.7737V10.9501Z" fill="#2A8E9E"/>
      <path d="M17.9276 10.9501H17.7737V20.7348H17.9276V10.9501Z" fill="#2A8E9E"/>
      <path d="M18.0852 10.9501H17.9313V20.7348H18.0852V10.9501Z" fill="#2A8E9E"/>
      <path d="M18.2391 10.9501H18.0852V20.7348H18.2391V10.9501Z" fill="#2A8E9E"/>
      <path d="M18.3967 10.9501H18.2428V20.7348H18.3967V10.9501Z" fill="#2A8E9E"/>
      <path d="M18.5506 10.9501H18.3967V20.7348H18.5506V10.9501Z" fill="#2A8E9E"/>
      <path d="M18.7045 10.9501H18.5506V20.7348H18.7045V10.9501Z" fill="#2A8E9E"/>
      <path d="M18.8621 10.9501H18.7082V20.7348H18.8621V10.9501Z" fill="#2A8E9E"/>
      <path d="M19.016 10.9501H18.8621V20.7348H19.016V10.9501Z" fill="#2A8E9E"/>
      <path d="M19.1699 10.9501H19.016V20.7348H19.1699V10.9501Z" fill="#2A8E9E"/>
      <path d="M19.3275 10.9501H19.1736V20.7348H19.3275V10.9501Z" fill="#2A8E9E"/>
      <path d="M19.4814 10.9501H19.3275V20.7348H19.4814V10.9501Z" fill="#2A8E9E"/>
      <path d="M19.639 10.9501H19.4851V20.7348H19.639V10.9501Z" fill="#2A8E9E"/>
      <path d="M19.7929 10.9501H19.639V20.7348H19.7929V10.9501Z" fill="#2A8E9E"/>
      <path d="M19.9469 10.9501H19.7929V20.7348H19.9469V10.9501Z" fill="#2A8E9E"/>
      <path d="M20.1044 10.9501H19.9505V20.7348H20.1044V10.9501Z" fill="#2A8E9E"/>
      <path d="M20.2583 10.9501H20.1044V20.7348H20.2583V10.9501Z" fill="#2A8E9E"/>
      <path d="M20.4123 10.9501H20.2583V20.7348H20.4123V10.9501Z" fill="#2A8E9E"/>
      <path d="M20.5699 10.9501H20.4159V20.7348H20.5699V10.9501Z" fill="#2A8E9E"/>
      <path d="M20.7238 10.9501H20.5699V20.7348H20.7238V10.9501Z" fill="#2A8E9E"/>
      <path d="M20.8813 10.9501H20.7274V20.7348H20.8813V10.9501Z" fill="#2A8E9E"/>
    </g>
    <path d="M26.6679 10.6642C26.4957 10.6642 26.3564 10.525 26.3564 10.3527C26.3564 10.1805 26.4957 10.0412 26.6679 10.0412C29.2625 10.0412 31.3733 7.93037 31.3733 5.33578C31.3733 2.74118 29.2625 0.630325 26.6679 0.630325C24.0733 0.630325 21.9624 2.74118 21.9624 5.33578C21.9624 5.50802 21.8232 5.64727 21.6509 5.64727C21.4787 5.64727 21.3394 5.50802 21.3394 5.33578C21.3394 2.3967 23.7325 0.00366402 26.6716 0.00366402C29.6106 0.00366402 32.0037 2.3967 32.0037 5.33578C32.0037 8.27485 29.6106 10.6679 26.6716 10.6679L26.6679 10.6642Z" fill="#2A8E9E"/>
    <path d="M5.33211 10.6642C2.39304 10.6642 0 8.27119 0 5.33211C0 2.39304 2.39304 0 5.33211 0C8.27119 0 10.6642 2.39304 10.6642 5.33211C10.6642 5.50435 10.525 5.64361 10.3527 5.64361C10.1805 5.64361 10.0412 5.50435 10.0412 5.33211C10.0412 2.73752 7.93037 0.626661 5.33578 0.626661C2.74118 0.626661 0.626661 2.73752 0.626661 5.33211C0.626661 7.92671 2.73752 10.0376 5.33211 10.0376C5.50435 10.0376 5.64361 10.1768 5.64361 10.3491C5.64361 10.5213 5.50435 10.6606 5.33211 10.6606V10.6642Z" fill="#2A8E9E"/>
    <path d="M26.6679 32C23.7288 32 21.3358 29.607 21.3358 26.6679C21.3358 26.4956 21.475 26.3564 21.6473 26.3564C21.8195 26.3564 21.9588 26.4956 21.9588 26.6679C21.9588 29.2625 24.0696 31.3733 26.6642 31.3733C29.2588 31.3733 31.3697 29.2625 31.3697 26.6679C31.3697 24.0733 29.2588 21.9624 26.6642 21.9624C26.492 21.9624 26.3527 21.8232 26.3527 21.6509C26.3527 21.4787 26.492 21.3394 26.6642 21.3394C29.6033 21.3394 31.9963 23.7325 31.9963 26.6716C31.9963 29.6106 29.6033 32.0037 26.6642 32.0037L26.6679 32Z" fill="#2A8E9E"/>
    <path d="M5.33211 32C2.39304 32 0 29.607 0 26.6679C0 23.7288 2.39304 21.3358 5.33211 21.3358C5.50435 21.3358 5.64361 21.475 5.64361 21.6473C5.64361 21.8195 5.50435 21.9588 5.33211 21.9588C2.73752 21.9588 0.626661 24.0696 0.626661 26.6642C0.626661 29.2588 2.73752 31.3697 5.33211 31.3697C7.92671 31.3697 10.0376 29.2588 10.0376 26.6642C10.0376 26.492 10.1768 26.3527 10.3491 26.3527C10.5213 26.3527 10.6606 26.492 10.6606 26.6642C10.6606 29.6033 8.26752 31.9963 5.32845 31.9963L5.33211 32Z" fill="#2A8E9E"/>
    <path d="M23.7105 23.0215V22.9812C23.7105 22.9519 23.7068 22.9226 23.6995 22.8933C23.1205 20.7641 22.8163 18.3271 22.8163 15.8497C22.8163 13.3724 23.1058 11.0783 23.6518 8.99313C26.2208 8.66331 28.207 6.47549 28.207 3.81493C25.6308 3.81493 23.4943 5.68026 23.0655 8.13193C23.0582 8.13193 23.0545 8.13193 23.0472 8.13193C20.9143 8.71095 18.4737 9.01878 15.989 9.01878C13.5043 9.01878 11.0673 8.71095 8.93449 8.13193C8.50572 5.67659 6.36921 3.81127 3.79294 3.81127C3.79294 6.46083 5.7682 8.64499 8.32615 8.9858C8.87219 11.071 9.1617 13.4384 9.1617 15.8461C9.1617 18.2538 8.85753 20.7604 8.27851 22.8896C8.27118 22.9189 8.26751 22.9482 8.26751 22.9776V23.0215C5.73888 23.388 3.79294 25.5575 3.79294 28.1851C6.48281 28.1851 8.69262 26.1548 8.98213 23.5419C11.104 22.9702 13.5263 22.6697 15.989 22.6697C18.4517 22.6697 20.8923 22.9739 23.0179 23.5492C23.311 26.1585 25.5208 28.1851 28.207 28.1851C28.207 25.5465 26.2501 23.3733 23.7105 23.0179V23.0215ZM15.989 21.9954C13.541 21.9954 11.1296 22.2886 8.99679 22.842C9.55015 20.7091 9.84333 18.2978 9.84333 15.8497C9.84333 13.4017 9.55748 11.0344 9.01144 8.91617C9.01144 8.89785 9.01144 8.87953 9.01144 8.8612C11.1406 9.41457 13.5483 9.70408 15.9927 9.70408C18.437 9.70408 20.852 9.4109 22.9849 8.85754C22.4315 10.9904 22.1383 13.4017 22.1383 15.8497C22.1383 18.2978 22.4315 20.7091 22.9849 22.842C20.852 22.2886 18.4407 21.9954 15.9927 21.9954H15.989Z" fill="#2A8E9E"/>
    <mask id="mask1_7485_264" style="mask-type:luminance" maskUnits="userSpaceOnUse" x="3" y="3" width="26" height="26">
      <path d="M23.7105 23.0215V22.9812C23.7105 22.9519 23.7068 22.9226 23.6995 22.8933C23.1205 20.7641 22.8163 18.3271 22.8163 15.8497C22.8163 13.3724 23.1058 11.0783 23.6518 8.99313C26.2208 8.66331 28.207 6.47549 28.207 3.81493C25.6308 3.81493 23.4943 5.68026 23.0655 8.13193C23.0582 8.13193 23.0545 8.13193 23.0472 8.13193C20.9143 8.71095 18.4737 9.01878 15.989 9.01878C13.5043 9.01878 11.0673 8.71095 8.93449 8.13193C8.50572 5.67659 6.36921 3.81127 3.79294 3.81127C3.79294 6.46083 5.7682 8.64499 8.32615 8.9858C8.87219 11.071 9.1617 13.4384 9.1617 15.8461C9.1617 18.2538 8.85753 20.7604 8.27851 22.8896C8.27118 22.9189 8.26751 22.9482 8.26751 22.9776V23.0215C5.73888 23.388 3.79294 25.5575 3.79294 28.1851C6.48281 28.1851 8.69262 26.1548 8.98213 23.5419C11.104 22.9702 13.5263 22.6697 15.989 22.6697C18.4517 22.6697 20.8923 22.9739 23.0179 23.5492C23.311 26.1585 25.5208 28.1851 28.207 28.1851C28.207 25.5465 26.2501 23.3733 23.7105 23.0179V23.0215ZM15.989 21.9954C13.541 21.9954 11.1296 22.2886 8.99679 22.842C9.55015 20.7091 9.84333 18.2978 9.84333 15.8497C9.84333 13.4017 9.55748 11.0344 9.01144 8.91617C9.01144 8.89785 9.01144 8.87953 9.01144 8.8612C11.1406 9.41457 13.5483 9.70408 15.9927 9.70408C18.437 9.70408 20.852 9.4109 22.9849 8.85754C22.4315 10.9904 22.1383 13.4017 22.1383 15.8497C22.1383 18.2978 22.4315 20.7091 22.9849 22.842C20.852 22.2886 18.4407 21.9954 15.9927 21.9954H15.989Z" fill="white"/>
    </mask>
    <g mask="url(#mask1_7485_264)">
      <path d="M9.21666 8.85387H8.99678V22.8383H9.21666V8.85387Z" fill="#2A8E9E"/>
      <path d="M9.60512 8.85387H9.21666V22.8383H9.60512V8.85387Z" fill="#2A8E9E"/>
      <path d="M9.99357 8.85387H9.60512V22.8383H9.99357V8.85387Z" fill="#2A8E9E"/>
      <path d="M10.382 8.85387H9.99358V22.8383H10.382V8.85387Z" fill="#2A8E9E"/>
      <path d="M10.7705 8.85387H10.382V22.8383H10.7705V8.85387Z" fill="#2A8E9E"/>
      <path d="M11.1553 8.85387H10.7668V22.8383H11.1553V8.85387Z" fill="#2A8E9E"/>
      <path d="M11.5437 8.85387H11.1553V22.8383H11.5437V8.85387Z" fill="#2A8E9E"/>
      <path d="M11.9322 8.85387H11.5437V22.8383H11.9322V8.85387Z" fill="#2A8E9E"/>
      <path d="M12.3206 8.85387H11.9322V22.8383H12.3206V8.85387Z" fill="#2A8E9E"/>
      <path d="M12.7054 8.85387H12.317V22.8383H12.7054V8.85387Z" fill="#2A8E9E"/>
      <path d="M13.0939 8.85387H12.7054V22.8383H13.0939V8.85387Z" fill="#2A8E9E"/>
      <path d="M13.4824 8.85387H13.0939V22.8383H13.4824V8.85387Z" fill="#2A8E9E"/>
      <path d="M13.8708 8.85387H13.4824V22.8383H13.8708V8.85387Z" fill="#2A8E9E"/>
      <path d="M14.2556 8.85387H13.8671V22.8383H14.2556V8.85387Z" fill="#2A8E9E"/>
      <path d="M14.6441 8.85387H14.2556V22.8383H14.6441V8.85387Z" fill="#2A8E9E"/>
      <path d="M15.0325 8.85387H14.6441V22.8383H15.0325V8.85387Z" fill="#2A8E9E"/>
      <path d="M15.421 8.85387H15.0325V22.8383H15.421V8.85387Z" fill="#2A8E9E"/>
      <path d="M15.8058 8.85387H15.4173V22.8383H15.8058V8.85387Z" fill="#2A8E9E"/>
      <path d="M16.1942 8.85387H15.8058V22.8383H16.1942V8.85387Z" fill="#2A8E9E"/>
      <path d="M16.5827 8.85387H16.1942V22.8383H16.5827V8.85387Z" fill="#2A8E9E"/>
      <path d="M16.9711 8.85387H16.5827V22.8383H16.9711V8.85387Z" fill="#2A8E9E"/>
      <path d="M17.3559 8.85387H16.9675V22.8383H17.3559V8.85387Z" fill="#2A8E9E"/>
      <path d="M17.7444 8.85387H17.3559V22.8383H17.7444V8.85387Z" fill="#2A8E9E"/>
      <path d="M18.1328 8.85387H17.7444V22.8383H18.1328V8.85387Z" fill="#2A8E9E"/>
      <path d="M18.5213 8.85387H18.1328V22.8383H18.5213V8.85387Z" fill="#2A8E9E"/>
      <path d="M18.9061 8.85387H18.5176V22.8383H18.9061V8.85387Z" fill="#2A8E9E"/>
      <path d="M19.2945 8.85387H18.9061V22.8383H19.2945V8.85387Z" fill="#2A8E9E"/>
      <path d="M19.683 8.85387H19.2945V22.8383H19.683V8.85387Z" fill="#2A8E9E"/>
      <path d="M20.0715 8.85387H19.683V22.8383H20.0715V8.85387Z" fill="#2A8E9E"/>
      <path d="M20.4562 8.85387H20.0678V22.8383H20.4562V8.85387Z" fill="#2A8E9E"/>
      <path d="M20.8447 8.85387H20.4562V22.8383H20.8447V8.85387Z" fill="#2A8E9E"/>
      <path d="M21.2332 8.85387H20.8447V22.8383H21.2332V8.85387Z" fill="#2A8E9E"/>
      <path d="M21.6216 8.85387H21.2332V22.8383H21.6216V8.85387Z" fill="#2A8E9E"/>
      <path d="M22.0064 8.85387H21.618V22.8383H22.0064V8.85387Z" fill="#2A8E9E"/>
      <path d="M22.3949 8.85387H22.0064V22.8383H22.3949V8.85387Z" fill="#2A8E9E"/>
      <path d="M22.7833 8.85387H22.3949V22.8383H22.7833V8.85387Z" fill="#2A8E9E"/>
      <path d="M22.9849 8.85387H22.7833V22.8383H22.9849V8.85387Z" fill="#2A8E9E"/>
      <path d="M4.18139 3.81127H3.79294V28.1887H4.18139V3.81127Z" fill="#2A8E9E"/>
      <path d="M4.56985 3.81127H4.1814V28.1887H4.56985V3.81127Z" fill="#2A8E9E"/>
      <path d="M4.95465 3.81127H4.56619V28.1887H4.95465V3.81127Z" fill="#2A8E9E"/>
      <path d="M5.34309 3.81127H4.95464V28.1887H5.34309V3.81127Z" fill="#2A8E9E"/>
      <path d="M5.73155 3.81127H5.34309V28.1887H5.73155V3.81127Z" fill="#2A8E9E"/>
      <path d="M6.12001 3.81127H5.73155V28.1887H6.12001V3.81127Z" fill="#2A8E9E"/>
      <path d="M6.5048 3.81127H6.11635V28.1887H6.5048V3.81127Z" fill="#2A8E9E"/>
      <path d="M6.89326 3.81127H6.50481V28.1887H6.89326V3.81127Z" fill="#2A8E9E"/>
      <path d="M7.28172 3.81127H6.89326V28.1887H7.28172V3.81127Z" fill="#2A8E9E"/>
      <path d="M7.67016 3.81127H7.28171V28.1887H7.67016V3.81127Z" fill="#2A8E9E"/>
      <path d="M8.05496 3.81127H7.6665V28.1887H8.05496V3.81127Z" fill="#2A8E9E"/>
      <path d="M8.44342 3.81127H8.05496V28.1887H8.44342V3.81127Z" fill="#2A8E9E"/>
      <path d="M8.83188 3.81127H8.44342V28.1887H8.83188V3.81127Z" fill="#2A8E9E"/>
      <path d="M9.22033 3.81127H8.83188V28.1887H9.22033V3.81127Z" fill="#2A8E9E"/>
      <path d="M9.60512 3.81127H9.21666V28.1887H9.60512V3.81127Z" fill="#2A8E9E"/>
      <path d="M9.99357 3.81127H9.60512V28.1887H9.99357V3.81127Z" fill="#2A8E9E"/>
      <path d="M10.382 3.81127H9.99358V28.1887H10.382V3.81127Z" fill="#2A8E9E"/>
      <path d="M10.7705 3.81127H10.382V28.1887H10.7705V3.81127Z" fill="#2A8E9E"/>
      <path d="M11.1553 3.81127H10.7668V28.1887H11.1553V3.81127Z" fill="#2A8E9E"/>
      <path d="M11.5437 3.81127H11.1553V28.1887H11.5437V3.81127Z" fill="#2A8E9E"/>
      <path d="M11.9322 3.81127H11.5437V28.1887H11.9322V3.81127Z" fill="#2A8E9E"/>
      <path d="M12.3206 3.81127H11.9322V28.1887H12.3206V3.81127Z" fill="#2A8E9E"/>
      <path d="M12.7054 3.81127H12.317V28.1887H12.7054V3.81127Z" fill="#2A8E9E"/>
      <path d="M13.0939 3.81127H12.7054V28.1887H13.0939V3.81127Z" fill="#2A8E9E"/>
      <path d="M13.4824 3.81127H13.0939V28.1887H13.4824V3.81127Z" fill="#2A8E9E"/>
      <path d="M13.8708 3.81127H13.4824V28.1887H13.8708V3.81127Z" fill="#2A8E9E"/>
      <path d="M14.2556 3.81127H13.8671V28.1887H14.2556V3.81127Z" fill="#2A8E9E"/>
      <path d="M14.6441 3.81127H14.2556V28.1887H14.6441V3.81127Z" fill="#2A8E9E"/>
      <path d="M15.0325 3.81127H14.6441V28.1887H15.0325V3.81127Z" fill="#2A8E9E"/>
      <path d="M15.421 3.81127H15.0325V28.1887H15.421V3.81127Z" fill="#2A8E9E"/>
      <path d="M15.8058 3.81127H15.4173V28.1887H15.8058V3.81127Z" fill="#2A8E9E"/>
      <path d="M16.1942 3.81127H15.8058V28.1887H16.1942V3.81127Z" fill="#2A8E9E"/>
      <path d="M16.5827 3.81127H16.1942V28.1887H16.5827V3.81127Z" fill="#2A8E9E"/>
      <path d="M16.9711 3.81127H16.5827V28.1887H16.9711V3.81127Z" fill="#2A8E9E"/>
      <path d="M17.3559 3.81127H16.9675V28.1887H17.3559V3.81127Z" fill="#2A8E9E"/>
      <path d="M17.7444 3.81127H17.3559V28.1887H17.7444V3.81127Z" fill="#2A8E9E"/>
      <path d="M18.1328 3.81127H17.7444V28.1887H18.1328V3.81127Z" fill="#2A8E9E"/>
      <path d="M18.5213 3.81127H18.1328V28.1887H18.5213V3.81127Z" fill="#2A8E9E"/>
      <path d="M18.9061 3.81127H18.5176V28.1887H18.9061V3.81127Z" fill="#2A8E9E"/>
      <path d="M19.2945 3.81127H18.9061V28.1887H19.2945V3.81127Z" fill="#2A8E9E"/>
      <path d="M19.683 3.81127H19.2945V28.1887H19.683V3.81127Z" fill="#2A8E9E"/>
      <path d="M20.0715 3.81127H19.683V28.1887H20.0715V3.81127Z" fill="#2A8E9E"/>
      <path d="M20.4562 3.81127H20.0678V28.1887H20.4562V3.81127Z" fill="#2A8E9E"/>
      <path d="M20.8447 3.81127H20.4562V28.1887H20.8447V3.81127Z" fill="#2A8E9E"/>
      <path d="M21.2332 3.81127H20.8447V28.1887H21.2332V3.81127Z" fill="#2A8E9E"/>
      <path d="M21.6216 3.81127H21.2332V28.1887H21.6216V3.81127Z" fill="#2A8E9E"/>
      <path d="M22.0064 3.81127H21.618V28.1887H22.0064V3.81127Z" fill="#2A8E9E"/>
      <path d="M22.3949 3.81127H22.0064V28.1887H22.3949V3.81127Z" fill="#2A8E9E"/>
      <path d="M22.7833 3.81127H22.3949V28.1887H22.7833V3.81127Z" fill="#2A8E9E"/>
      <path d="M23.1718 3.81127H22.7833V28.1887H23.1718V3.81127Z" fill="#2A8E9E"/>
      <path d="M23.5566 3.81127H23.1681V28.1887H23.5566V3.81127Z" fill="#2A8E9E"/>
      <path d="M23.945 3.81127H23.5566V28.1887H23.945V3.81127Z" fill="#2A8E9E"/>
      <path d="M24.3335 3.81127H23.945V28.1887H24.3335V3.81127Z" fill="#2A8E9E"/>
      <path d="M24.7219 3.81127H24.3335V28.1887H24.7219V3.81127Z" fill="#2A8E9E"/>
      <path d="M25.1067 3.81127H24.7183V28.1887H25.1067V3.81127Z" fill="#2A8E9E"/>
      <path d="M25.4952 3.81127H25.1067V28.1887H25.4952V3.81127Z" fill="#2A8E9E"/>
      <path d="M25.8836 3.81127H25.4952V28.1887H25.8836V3.81127Z" fill="#2A8E9E"/>
      <path d="M26.2721 3.81127H25.8836V28.1887H26.2721V3.81127Z" fill="#2A8E9E"/>
      <path d="M26.6569 3.81127H26.2684V28.1887H26.6569V3.81127Z" fill="#2A8E9E"/>
      <path d="M27.0453 3.81127H26.6569V28.1887H27.0453V3.81127Z" fill="#2A8E9E"/>
      <path d="M27.4338 3.81127H27.0453V28.1887H27.4338V3.81127Z" fill="#2A8E9E"/>
      <path d="M27.8223 3.81127H27.4338V28.1887H27.8223V3.81127Z" fill="#2A8E9E"/>
      <path d="M28.207 3.81127H27.8186V28.1887H28.207V3.81127Z" fill="#2A8E9E"/>
    </g>
  </g>
  <defs>
    <clipPath id="clip0_7485_264">
      <rect width="32" height="32" fill="white"/>
    </clipPath>
  </defs>
</svg>